<svg id="svg" xmlns="http://www.w3.org/2000/svg" xmlns:xlink="http://www.w3.org/1999/xlink" width="400" height="400" viewBox="0, 0, 400,400"><g id="svgg"><path id="path0" d="M0.000 200.000 L 0.000 400.000 200.000 400.000 L 400.000 400.000 400.000 200.000 L 400.000 0.000 200.000 0.000 L 0.000 0.000 0.000 200.000 M323.002 100.100 C 323.121 100.595,323.169 151.670,323.109 213.600 L 323.000 326.200 210.100 326.301 L 97.200 326.401 97.200 213.067 C 97.200 150.734,97.320 99.613,97.467 99.467 C 97.613 99.320,148.370 99.200,210.259 99.200 L 322.785 99.200 323.002 100.100 " stroke="none" fill="#dcdbdb" fill-rule="evenodd"></path><path id="path1" d="M97.867 100.267 C 97.720 100.413,97.600 151.263,97.600 213.267 L 97.600 326.000 210.000 326.000 L 322.400 326.000 322.400 213.000 L 322.400 100.000 210.267 100.000 C 148.593 100.000,98.013 100.120,97.867 100.267 M158.704 168.100 C 158.924 168.375,159.192 169.230,159.298 170.000 C 159.469 171.238,159.963 173.496,161.267 179.000 C 161.880 181.587,162.409 184.779,162.792 188.200 C 163.208 191.918,163.725 194.588,164.304 196.000 L 164.714 197.000 164.979 195.800 C 165.126 195.140,165.405 193.880,165.601 193.000 C 165.796 192.120,166.066 190.860,166.200 190.200 C 166.334 189.540,166.623 188.190,166.844 187.200 C 167.064 186.210,167.336 184.770,167.447 184.000 C 167.558 183.230,167.806 182.240,167.997 181.800 C 168.188 181.360,168.816 178.840,169.394 176.200 C 169.971 173.560,170.647 170.545,170.897 169.500 L 171.351 167.600 174.062 167.600 C 177.740 167.600,177.511 166.319,177.644 187.606 L 177.761 206.200 175.380 206.200 L 173.000 206.200 172.894 194.456 C 172.801 184.124,172.716 182.771,172.194 183.205 C 171.867 183.476,171.600 184.011,171.600 184.394 C 171.600 184.777,171.216 186.600,170.746 188.445 C 169.877 191.863,169.429 193.747,168.808 196.600 C 168.617 197.480,168.253 198.920,168.000 199.800 C 167.747 200.680,167.406 202.120,167.244 203.000 C 166.715 205.857,166.176 206.460,164.274 206.322 L 162.600 206.200 162.285 204.000 C 161.511 198.599,161.231 196.897,160.872 195.400 C 159.949 191.555,158.457 184.925,158.037 182.800 C 157.884 182.030,157.636 186.878,157.486 193.572 C 157.181 207.152,157.358 206.468,154.200 206.304 L 152.200 206.200 152.200 196.800 C 152.200 187.380,152.723 169.039,153.018 168.100 C 153.122 167.768,154.038 167.600,155.738 167.600 C 157.308 167.600,158.458 167.794,158.704 168.100 M206.329 169.155 C 206.629 172.292,206.478 172.400,201.792 172.400 L 197.600 172.400 197.600 178.184 L 197.600 183.968 200.900 184.084 L 204.200 184.200 204.200 186.400 L 204.200 188.600 200.900 188.716 L 197.600 188.832 197.600 195.216 L 197.600 201.600 201.792 201.600 C 206.478 201.600,206.629 201.708,206.329 204.845 L 206.200 206.200 198.800 206.200 L 191.400 206.200 191.296 187.400 C 191.238 177.060,191.279 168.371,191.387 168.091 C 191.537 167.699,193.263 167.607,198.891 167.691 L 206.200 167.800 206.329 169.155 M234.720 169.900 L 234.600 172.200 231.504 172.317 L 228.409 172.433 228.304 189.317 L 228.200 206.200 225.400 206.200 L 222.600 206.200 222.496 189.317 L 222.391 172.435 219.496 172.317 L 216.600 172.200 216.475 170.454 C 216.259 167.447,215.759 167.600,225.807 167.600 L 234.840 167.600 234.720 169.900 M257.714 169.400 C 258.067 171.140,258.535 173.474,259.157 176.600 C 259.376 177.700,259.847 179.680,260.203 181.000 C 260.559 182.320,261.039 184.300,261.269 185.400 C 262.058 189.170,262.437 191.002,262.800 192.800 C 263.395 195.749,263.894 197.998,264.787 201.769 C 265.856 206.282,265.807 206.400,262.862 206.400 C 260.047 206.400,259.866 206.220,259.236 202.800 C 258.972 201.370,258.573 199.615,258.347 198.900 L 257.938 197.600 254.800 197.600 L 251.662 197.600 251.257 198.900 C 251.035 199.615,250.641 201.280,250.381 202.600 C 249.660 206.278,249.544 206.400,246.773 206.400 C 244.979 206.400,244.315 206.244,244.138 205.782 C 243.931 205.243,245.353 198.536,246.429 194.972 C 246.633 194.296,246.800 193.319,246.800 192.800 C 246.800 192.281,246.969 191.304,247.176 190.628 C 247.383 189.953,247.758 188.320,248.010 187.000 C 248.262 185.680,248.887 182.890,249.400 180.800 C 249.913 178.710,250.538 175.920,250.790 174.600 C 251.042 173.280,251.417 171.647,251.624 170.972 C 251.831 170.296,252.000 169.381,252.000 168.938 C 252.000 167.711,252.367 167.556,254.978 167.683 L 257.389 167.800 257.714 169.400 M255.094 178.800 C 254.752 179.695,254.197 182.415,253.217 188.000 C 253.005 189.210,252.714 190.785,252.570 191.500 L 252.309 192.800 254.811 192.800 L 257.312 192.800 257.021 190.500 C 256.862 189.235,256.580 186.670,256.397 184.800 C 255.988 180.640,255.409 177.974,255.094 178.800 M177.169 223.828 C 179.864 224.766,180.998 225.758,181.570 227.676 C 181.852 228.624,182.245 229.813,182.442 230.319 C 183.228 232.336,182.874 254.009,182.016 256.357 C 180.322 260.990,178.063 262.000,169.389 262.000 L 163.200 262.000 163.200 242.867 C 163.200 232.343,163.320 223.613,163.467 223.467 C 164.037 222.896,175.351 223.194,177.169 223.828 M211.400 225.600 L 211.400 227.800 206.700 227.913 L 202.000 228.025 202.000 233.798 L 202.000 239.570 205.700 239.685 L 209.400 239.800 209.520 242.100 L 209.640 244.400 205.820 244.400 L 202.000 244.400 202.000 250.787 L 202.000 257.175 206.700 257.287 L 211.400 257.400 211.400 259.600 L 211.400 261.800 204.800 261.914 C 201.170 261.977,197.795 261.929,197.300 261.807 L 196.400 261.585 196.400 242.626 C 196.400 227.835,196.510 223.621,196.900 223.460 C 197.175 223.347,200.550 223.287,204.400 223.327 L 211.400 223.400 211.400 225.600 M227.254 224.300 C 227.492 224.905,227.854 226.660,228.057 228.200 C 230.246 244.776,231.396 249.645,232.064 245.168 C 232.665 241.139,235.380 227.145,236.039 224.678 C 236.435 223.193,236.486 223.159,238.115 223.278 L 239.785 223.400 240.290 225.600 C 240.568 226.810,240.992 228.970,241.232 230.400 C 241.763 233.563,242.221 235.954,242.803 238.600 C 243.311 240.911,243.829 243.788,244.226 246.500 C 244.379 247.545,244.638 248.400,244.801 248.400 C 244.965 248.400,245.204 247.545,245.333 246.500 C 245.571 244.569,246.181 240.381,246.804 236.400 C 247.156 234.155,247.833 229.475,248.222 226.600 C 248.698 223.089,248.610 223.199,250.908 223.206 C 253.215 223.213,254.266 223.647,253.800 224.400 C 253.634 224.669,253.327 226.174,253.119 227.745 C 252.468 232.651,252.136 234.785,250.870 242.200 C 250.194 246.160,249.439 250.660,249.193 252.200 C 248.946 253.740,248.655 255.450,248.545 256.000 C 248.435 256.550,248.217 257.900,248.060 259.000 C 247.669 261.754,247.439 262.000,245.256 262.000 C 242.921 262.000,242.400 261.516,242.400 259.344 C 242.400 258.411,242.220 257.536,242.000 257.400 C 241.780 257.264,241.600 256.591,241.600 255.905 C 241.600 255.218,241.433 254.104,241.229 253.428 C 241.024 252.753,240.375 249.500,239.785 246.200 C 239.195 242.900,238.507 239.660,238.256 239.000 L 237.800 237.800 237.541 239.800 C 237.198 242.458,236.101 248.477,234.808 254.800 C 234.605 255.790,234.332 257.140,234.201 257.800 C 234.070 258.460,233.759 259.683,233.511 260.518 L 233.060 262.036 230.860 261.918 L 228.659 261.800 228.114 259.200 C 227.815 257.770,227.396 255.832,227.185 254.894 C 226.973 253.956,226.800 252.654,226.800 252.000 C 226.800 251.346,226.627 250.044,226.415 249.106 C 226.203 248.168,225.830 246.050,225.587 244.400 C 225.344 242.750,224.906 240.230,224.614 238.800 C 224.321 237.370,223.877 234.850,223.626 233.200 C 223.376 231.550,222.997 229.432,222.785 228.494 C 222.573 227.556,222.400 225.981,222.400 224.994 L 222.400 223.200 224.610 223.200 C 226.649 223.200,226.853 223.285,227.254 224.300 M169.200 242.600 L 169.200 257.200 172.178 257.200 C 174.741 257.200,175.310 257.067,176.267 256.243 L 177.379 255.287 177.536 245.839 C 177.810 229.354,177.388 228.000,171.969 228.000 L 169.200 228.000 169.200 242.600 " stroke="none" fill="#fb934c" fill-rule="evenodd"></path><path id="path2" d="M152.988 183.900 C 152.800 192.645,152.636 201.150,152.623 202.800 L 152.600 205.800 154.500 205.922 L 156.400 206.044 156.426 203.122 C 156.564 187.537,157.320 178.093,158.174 181.260 C 158.659 183.055,159.129 185.011,159.556 187.000 C 159.792 188.100,160.416 190.890,160.944 193.200 C 162.305 199.158,162.800 202.005,162.800 203.881 C 162.800 205.599,163.214 206.000,164.987 206.000 C 165.673 206.000,165.966 205.718,166.130 204.900 C 166.364 203.735,166.436 203.436,168.374 195.600 C 169.054 192.850,169.808 189.700,170.050 188.600 C 170.292 187.500,170.650 186.187,170.845 185.681 C 171.040 185.176,171.208 184.276,171.217 183.681 C 171.232 182.681,172.638 179.549,172.869 180.000 C 172.926 180.110,173.068 185.960,173.186 193.000 L 173.400 205.800 175.365 205.925 L 177.331 206.049 177.066 187.925 C 176.754 166.466,176.986 168.000,174.043 168.000 L 171.780 168.000 171.044 171.500 C 170.272 175.167,170.044 176.149,168.975 180.400 C 168.616 181.830,168.179 183.720,168.004 184.600 C 167.647 186.404,167.108 188.896,166.187 193.000 C 165.841 194.540,165.454 196.385,165.327 197.100 C 164.554 201.439,163.308 197.060,161.600 184.000 C 161.413 182.570,161.057 180.590,160.808 179.600 C 160.560 178.610,160.207 177.080,160.026 176.200 C 158.223 167.480,158.501 168.000,155.641 168.000 L 153.329 168.000 152.988 183.900 M191.787 168.491 C 191.679 168.771,191.638 177.280,191.696 187.400 L 191.800 205.800 198.800 205.800 L 205.800 205.800 205.800 204.200 L 205.800 202.600 201.822 202.485 C 196.548 202.332,196.800 202.688,196.800 195.384 C 196.800 187.606,196.621 188.001,200.143 187.994 C 203.619 187.986,204.099 187.729,203.930 185.958 L 203.800 184.600 200.400 184.400 L 197.000 184.200 196.889 178.455 C 196.751 171.320,196.557 171.600,201.641 171.600 C 205.877 171.600,206.382 171.285,205.930 168.932 C 205.750 167.993,192.140 167.568,191.787 168.491 M217.200 169.782 L 217.200 171.563 219.900 171.682 L 222.600 171.800 222.704 188.900 L 222.809 206.000 225.204 206.000 L 227.600 206.000 227.600 189.224 C 227.600 176.363,227.715 172.376,228.093 172.143 C 228.364 171.975,229.849 171.739,231.393 171.619 L 234.200 171.400 234.323 169.700 L 234.446 168.000 225.823 168.000 L 217.200 168.000 217.200 169.782 M252.617 168.500 C 252.530 168.775,252.381 169.540,252.285 170.200 C 251.999 172.163,250.386 179.720,250.022 180.800 C 249.837 181.350,249.473 182.880,249.213 184.200 C 248.953 185.520,248.587 187.230,248.400 188.000 C 248.213 188.770,247.852 190.480,247.597 191.800 C 246.801 195.933,246.232 198.398,244.789 203.966 C 244.309 205.816,244.509 206.000,247.005 206.000 L 249.164 206.000 249.410 204.500 C 250.611 197.179,250.886 196.800,255.000 196.800 C 258.241 196.800,258.310 196.821,258.698 197.900 C 259.313 199.616,260.000 202.713,260.000 203.773 C 260.000 205.699,260.355 206.000,262.619 206.000 C 265.090 206.000,265.291 205.814,264.811 203.966 C 263.368 198.398,262.799 195.933,262.003 191.800 C 261.748 190.480,261.389 188.770,261.203 188.000 C 260.633 185.633,258.795 177.513,258.351 175.400 C 258.120 174.300,257.766 172.749,257.565 171.954 C 257.364 171.158,257.200 169.943,257.200 169.254 L 257.200 168.000 254.987 168.000 C 253.568 168.000,252.718 168.179,252.617 168.500 M256.152 179.700 C 256.916 183.268,257.601 188.758,257.601 191.300 L 257.600 193.200 254.800 193.200 L 252.000 193.200 252.000 191.946 C 252.000 191.257,252.164 190.042,252.365 189.246 C 252.566 188.451,252.931 186.630,253.178 185.200 C 253.915 180.922,254.927 176.800,255.239 176.800 C 255.400 176.800,255.811 178.105,256.152 179.700 M163.600 242.600 L 163.600 261.600 168.838 261.600 C 178.064 261.600,180.360 260.366,181.950 254.554 C 182.497 252.552,182.569 233.057,182.035 231.360 C 181.835 230.722,181.430 229.314,181.135 228.230 C 180.203 224.801,177.137 223.645,168.900 223.618 L 163.600 223.600 163.600 242.600 M197.383 224.100 C 197.278 224.375,197.238 232.880,197.296 243.000 L 197.400 261.400 204.323 261.510 L 211.247 261.619 211.123 259.910 L 211.000 258.200 206.400 258.000 L 201.800 257.800 201.800 250.800 L 201.800 243.800 205.500 243.685 L 209.200 243.570 209.200 241.785 L 209.200 240.000 205.400 240.000 L 201.600 240.000 201.600 233.813 L 201.600 227.625 206.300 227.513 L 211.000 227.400 211.122 225.500 L 211.244 223.600 204.409 223.600 C 199.311 223.600,197.526 223.727,197.383 224.100 M222.949 225.300 C 223.087 226.235,223.381 228.125,223.601 229.500 C 223.820 230.875,224.164 233.035,224.364 234.300 C 224.565 235.565,225.203 239.210,225.783 242.400 C 226.362 245.590,227.010 249.370,227.223 250.800 C 227.435 252.230,227.799 254.390,228.031 255.600 C 228.263 256.810,228.548 258.655,228.665 259.700 L 228.877 261.600 230.772 261.600 L 232.666 261.600 233.742 256.700 C 234.787 251.940,235.244 249.655,236.024 245.300 C 236.231 244.145,236.575 242.255,236.789 241.100 C 237.003 239.945,237.292 238.100,237.431 237.000 L 237.684 235.000 238.389 237.000 C 238.776 238.100,239.314 240.260,239.583 241.800 C 239.852 243.340,240.506 246.850,241.037 249.600 C 243.458 262.161,243.263 261.600,245.188 261.600 C 246.926 261.600,247.091 261.354,247.615 258.000 C 247.804 256.790,248.252 254.090,248.611 252.000 C 248.969 249.910,249.436 247.120,249.649 245.800 C 249.861 244.480,250.209 242.320,250.421 241.000 C 250.634 239.680,250.986 237.610,251.203 236.400 C 253.389 224.239,253.389 223.600,251.200 223.600 C 249.333 223.600,249.111 223.906,248.726 227.000 C 248.297 230.438,247.707 234.595,247.220 237.600 C 246.988 239.030,246.612 241.550,246.384 243.200 C 245.826 247.250,245.132 250.400,244.799 250.400 C 244.549 250.400,243.761 246.884,242.738 241.200 C 242.520 239.990,242.188 238.370,242.001 237.600 C 241.611 236.000,240.917 232.352,239.719 225.600 C 239.427 223.951,239.293 223.790,238.132 223.677 L 236.865 223.554 236.221 226.677 C 235.867 228.395,235.394 230.790,235.169 232.000 C 234.726 234.392,234.278 236.686,233.645 239.800 C 233.085 242.556,232.468 245.916,232.202 247.660 C 232.079 248.463,231.721 249.334,231.406 249.595 C 230.745 250.144,230.732 250.098,230.007 244.800 C 229.751 242.930,229.302 240.050,229.009 238.400 C 228.716 236.750,228.291 234.140,228.065 232.600 C 227.838 231.060,227.425 228.405,227.147 226.700 L 226.641 223.600 224.668 223.600 L 222.696 223.600 222.949 225.300 M176.285 228.700 C 179.225 231.464,179.314 255.293,176.391 257.114 C 175.105 257.915,169.211 258.262,168.768 257.562 C 168.360 256.917,168.262 228.271,168.667 227.867 C 169.530 227.004,175.133 227.617,176.285 228.700 " stroke="none" fill="#3d3843" fill-rule="evenodd"></path><path id="path3" d="M153.018 168.100 C 152.723 169.039,152.200 187.380,152.200 196.800 L 152.200 206.200 154.200 206.304 C 157.358 206.468,157.181 207.152,157.486 193.572 C 157.636 186.878,157.884 182.030,158.037 182.800 C 158.457 184.925,159.949 191.555,160.872 195.400 C 161.231 196.897,161.511 198.599,162.285 204.000 L 162.600 206.200 164.274 206.322 C 166.176 206.460,166.715 205.857,167.244 203.000 C 167.406 202.120,167.747 200.680,168.000 199.800 C 168.253 198.920,168.617 197.480,168.808 196.600 C 169.429 193.747,169.877 191.863,170.746 188.445 C 171.216 186.600,171.600 184.777,171.600 184.394 C 171.600 184.011,171.867 183.476,172.194 183.205 C 172.716 182.771,172.801 184.124,172.894 194.456 L 173.000 206.200 175.380 206.200 L 177.761 206.200 177.644 187.606 C 177.511 166.319,177.740 167.600,174.062 167.600 L 171.351 167.600 170.897 169.500 C 170.647 170.545,169.971 173.560,169.394 176.200 C 168.816 178.840,168.188 181.360,167.997 181.800 C 167.806 182.240,167.558 183.230,167.447 184.000 C 167.336 184.770,167.064 186.210,166.844 187.200 C 166.623 188.190,166.334 189.540,166.200 190.200 C 166.066 190.860,165.796 192.120,165.601 193.000 C 165.405 193.880,165.126 195.140,164.979 195.800 L 164.714 197.000 164.304 196.000 C 163.725 194.588,163.208 191.918,162.792 188.200 C 162.409 184.779,161.880 181.587,161.267 179.000 C 159.963 173.496,159.469 171.238,159.298 170.000 C 159.006 167.880,158.590 167.600,155.738 167.600 C 154.038 167.600,153.122 167.768,153.018 168.100 M191.387 168.091 C 191.279 168.371,191.238 177.060,191.296 187.400 L 191.400 206.200 198.800 206.200 L 206.200 206.200 206.329 204.845 C 206.629 201.708,206.478 201.600,201.792 201.600 L 197.600 201.600 197.600 195.216 L 197.600 188.832 200.900 188.716 L 204.200 188.600 204.200 186.400 L 204.200 184.200 200.900 184.084 L 197.600 183.968 197.600 178.184 L 197.600 172.400 201.792 172.400 C 206.478 172.400,206.629 172.292,206.329 169.155 L 206.200 167.800 198.891 167.691 C 193.263 167.607,191.537 167.699,191.387 168.091 M216.562 168.154 C 216.445 168.459,216.406 169.494,216.475 170.454 L 216.600 172.200 219.496 172.317 L 222.391 172.435 222.496 189.317 L 222.600 206.200 225.400 206.200 L 228.200 206.200 228.304 189.317 L 228.409 172.433 231.504 172.317 L 234.600 172.200 234.720 169.900 L 234.840 167.600 225.807 167.600 C 218.479 167.600,216.735 167.705,216.562 168.154 M252.284 167.850 C 252.128 168.006,252.000 168.496,252.000 168.938 C 252.000 169.381,251.831 170.296,251.624 170.972 C 251.417 171.647,251.042 173.280,250.790 174.600 C 250.538 175.920,249.913 178.710,249.400 180.800 C 248.887 182.890,248.262 185.680,248.010 187.000 C 247.758 188.320,247.383 189.953,247.176 190.628 C 246.969 191.304,246.800 192.281,246.800 192.800 C 246.800 193.319,246.633 194.296,246.429 194.972 C 245.353 198.536,243.931 205.243,244.138 205.782 C 244.315 206.244,244.979 206.400,246.773 206.400 C 249.544 206.400,249.660 206.278,250.381 202.600 C 250.641 201.280,251.035 199.615,251.257 198.900 L 251.662 197.600 254.800 197.600 L 257.938 197.600 258.347 198.900 C 258.573 199.615,258.972 201.370,259.236 202.800 C 259.866 206.220,260.047 206.400,262.862 206.400 C 265.807 206.400,265.856 206.282,264.787 201.769 C 263.894 197.998,263.395 195.749,262.800 192.800 C 262.437 191.002,262.058 189.170,261.269 185.400 C 261.039 184.300,260.559 182.320,260.203 181.000 C 259.847 179.680,259.376 177.700,259.157 176.600 C 258.535 173.474,258.067 171.140,257.714 169.400 L 257.389 167.800 254.978 167.683 C 253.652 167.619,252.440 167.694,252.284 167.850 M158.173 168.356 C 158.372 168.678,159.163 172.026,160.026 176.200 C 160.207 177.080,160.560 178.610,160.808 179.600 C 161.057 180.590,161.413 182.570,161.600 184.000 C 163.308 197.060,164.554 201.439,165.327 197.100 C 165.454 196.385,165.841 194.540,166.187 193.000 C 167.108 188.896,167.647 186.404,168.004 184.600 C 168.179 183.720,168.616 181.830,168.975 180.400 C 170.044 176.149,170.272 175.167,171.044 171.500 L 171.780 168.000 174.043 168.000 C 176.986 168.000,176.754 166.466,177.066 187.925 L 177.331 206.049 175.365 205.925 L 173.400 205.800 173.186 193.000 C 173.068 185.960,172.926 180.110,172.869 180.000 C 172.638 179.549,171.232 182.681,171.217 183.681 C 171.208 184.276,171.040 185.176,170.845 185.681 C 170.650 186.187,170.292 187.500,170.050 188.600 C 169.808 189.700,169.054 192.850,168.374 195.600 C 166.436 203.436,166.364 203.735,166.130 204.900 C 165.966 205.718,165.673 206.000,164.987 206.000 C 163.214 206.000,162.800 205.599,162.800 203.881 C 162.800 202.005,162.305 199.158,160.944 193.200 C 160.416 190.890,159.792 188.100,159.556 187.000 C 159.129 185.011,158.659 183.055,158.174 181.260 C 157.320 178.093,156.564 187.537,156.426 203.122 L 156.400 206.044 154.500 205.922 L 152.600 205.800 152.623 202.800 C 152.636 201.150,152.800 192.645,152.988 183.900 L 153.329 168.000 155.641 168.000 C 156.913 168.000,158.052 168.160,158.173 168.356 M205.930 168.932 C 206.382 171.285,205.877 171.600,201.641 171.600 C 196.557 171.600,196.751 171.320,196.889 178.455 L 197.000 184.200 200.400 184.400 L 203.800 184.600 203.930 185.958 C 204.099 187.729,203.619 187.986,200.143 187.994 C 196.621 188.001,196.800 187.606,196.800 195.384 C 196.800 202.688,196.548 202.332,201.822 202.485 L 205.800 202.600 205.800 204.200 L 205.800 205.800 198.800 205.800 L 191.800 205.800 191.696 187.400 C 191.638 177.280,191.679 168.771,191.787 168.491 C 192.140 167.568,205.750 167.993,205.930 168.932 M234.323 169.700 L 234.200 171.400 231.393 171.619 C 229.849 171.739,228.364 171.975,228.093 172.143 C 227.715 172.376,227.600 176.363,227.600 189.224 L 227.600 206.000 225.204 206.000 L 222.809 206.000 222.704 188.900 L 222.600 171.800 219.900 171.682 L 217.200 171.563 217.200 169.782 L 217.200 168.000 225.823 168.000 L 234.446 168.000 234.323 169.700 M257.200 169.254 C 257.200 169.943,257.364 171.158,257.565 171.954 C 257.766 172.749,258.120 174.300,258.351 175.400 C 258.795 177.513,260.633 185.633,261.203 188.000 C 261.389 188.770,261.748 190.480,262.003 191.800 C 262.799 195.933,263.368 198.398,264.811 203.966 C 265.291 205.814,265.090 206.000,262.619 206.000 C 260.355 206.000,260.000 205.699,260.000 203.773 C 260.000 202.713,259.313 199.616,258.698 197.900 C 258.310 196.821,258.241 196.800,255.000 196.800 C 250.886 196.800,250.611 197.179,249.410 204.500 L 249.164 206.000 247.005 206.000 C 244.509 206.000,244.309 205.816,244.789 203.966 C 246.232 198.398,246.801 195.933,247.597 191.800 C 247.852 190.480,248.213 188.770,248.400 188.000 C 248.587 187.230,248.953 185.520,249.213 184.200 C 249.473 182.880,249.837 181.350,250.022 180.800 C 250.386 179.720,251.999 172.163,252.285 170.200 C 252.597 168.056,252.666 168.000,254.987 168.000 L 257.200 168.000 257.200 169.254 M254.286 179.700 C 253.923 181.295,253.424 183.770,253.178 185.200 C 252.931 186.630,252.566 188.451,252.365 189.246 C 252.164 190.042,252.000 191.257,252.000 191.946 L 252.000 193.200 254.800 193.200 L 257.600 193.200 257.601 191.300 C 257.602 187.238,255.902 176.800,255.239 176.800 C 255.078 176.800,254.649 178.105,254.286 179.700 M256.397 184.800 C 256.580 186.670,256.862 189.235,257.021 190.500 L 257.312 192.800 254.811 192.800 L 252.309 192.800 252.570 191.500 C 252.714 190.785,253.005 189.210,253.217 188.000 C 255.212 176.632,255.560 176.283,256.397 184.800 M163.467 223.467 C 163.320 223.613,163.200 232.343,163.200 242.867 L 163.200 262.000 169.389 262.000 C 178.063 262.000,180.322 260.990,182.016 256.357 C 182.874 254.009,183.228 232.336,182.442 230.319 C 182.245 229.813,181.852 228.624,181.570 227.676 C 180.560 224.286,177.682 223.214,169.567 223.206 C 166.358 223.203,163.613 223.320,163.467 223.467 M196.900 223.460 C 196.510 223.621,196.400 227.835,196.400 242.626 L 196.400 261.585 197.300 261.807 C 197.795 261.929,201.170 261.977,204.800 261.914 L 211.400 261.800 211.400 259.600 L 211.400 257.400 206.700 257.287 L 202.000 257.175 202.000 250.787 L 202.000 244.400 205.820 244.400 L 209.640 244.400 209.520 242.100 L 209.400 239.800 205.700 239.685 L 202.000 239.570 202.000 233.798 L 202.000 228.025 206.700 227.913 L 211.400 227.800 211.400 225.600 L 211.400 223.400 204.400 223.327 C 200.550 223.287,197.175 223.347,196.900 223.460 M222.400 224.994 C 222.400 225.981,222.573 227.556,222.785 228.494 C 222.997 229.432,223.376 231.550,223.626 233.200 C 223.877 234.850,224.321 237.370,224.614 238.800 C 224.906 240.230,225.344 242.750,225.587 244.400 C 225.830 246.050,226.203 248.168,226.415 249.106 C 226.627 250.044,226.800 251.346,226.800 252.000 C 226.800 252.654,226.973 253.956,227.185 254.894 C 227.396 255.832,227.815 257.770,228.114 259.200 L 228.659 261.800 230.860 261.918 L 233.060 262.036 233.511 260.518 C 233.759 259.683,234.070 258.460,234.201 257.800 C 234.332 257.140,234.605 255.790,234.808 254.800 C 236.101 248.477,237.198 242.458,237.541 239.800 L 237.800 237.800 238.256 239.000 C 238.507 239.660,239.195 242.900,239.785 246.200 C 240.375 249.500,241.024 252.753,241.229 253.428 C 241.433 254.104,241.600 255.218,241.600 255.905 C 241.600 256.591,241.780 257.264,242.000 257.400 C 242.220 257.536,242.400 258.411,242.400 259.344 C 242.400 261.516,242.921 262.000,245.256 262.000 C 247.439 262.000,247.669 261.754,248.060 259.000 C 248.217 257.900,248.435 256.550,248.545 256.000 C 248.655 255.450,248.946 253.740,249.193 252.200 C 249.439 250.660,250.194 246.160,250.870 242.200 C 252.136 234.785,252.468 232.651,253.119 227.745 C 253.327 226.174,253.634 224.669,253.800 224.400 C 254.266 223.647,253.215 223.213,250.908 223.206 C 248.610 223.199,248.698 223.089,248.222 226.600 C 247.833 229.475,247.156 234.155,246.804 236.400 C 246.181 240.381,245.571 244.569,245.333 246.500 C 245.204 247.545,244.965 248.400,244.801 248.400 C 244.638 248.400,244.379 247.545,244.226 246.500 C 243.829 243.788,243.311 240.911,242.803 238.600 C 242.221 235.954,241.763 233.563,241.232 230.400 C 240.992 228.970,240.568 226.810,240.290 225.600 L 239.785 223.400 238.115 223.278 C 236.486 223.159,236.435 223.193,236.039 224.678 C 235.380 227.145,232.665 241.139,232.064 245.168 C 231.396 249.645,230.246 244.776,228.057 228.200 C 227.441 223.538,227.208 223.200,224.610 223.200 L 222.400 223.200 222.400 224.994 M176.003 224.118 C 179.234 224.982,180.536 226.025,181.135 228.230 C 181.430 229.314,181.835 230.722,182.035 231.360 C 182.569 233.057,182.497 252.552,181.950 254.554 C 180.360 260.366,178.064 261.600,168.838 261.600 L 163.600 261.600 163.600 242.600 L 163.600 223.600 168.900 223.618 C 171.815 223.627,175.011 223.852,176.003 224.118 M211.122 225.500 L 211.000 227.400 206.300 227.513 L 201.600 227.625 201.600 233.813 L 201.600 240.000 205.400 240.000 L 209.200 240.000 209.200 241.785 L 209.200 243.570 205.500 243.685 L 201.800 243.800 201.800 250.800 L 201.800 257.800 206.400 258.000 L 211.000 258.200 211.123 259.910 L 211.247 261.619 204.323 261.510 L 197.400 261.400 197.296 243.000 C 197.238 232.880,197.278 224.375,197.383 224.100 C 197.526 223.727,199.311 223.600,204.409 223.600 L 211.244 223.600 211.122 225.500 M227.147 226.700 C 227.425 228.405,227.838 231.060,228.065 232.600 C 228.291 234.140,228.716 236.750,229.009 238.400 C 229.302 240.050,229.751 242.930,230.007 244.800 C 230.732 250.098,230.745 250.144,231.406 249.595 C 231.721 249.334,232.079 248.463,232.202 247.660 C 232.468 245.916,233.085 242.556,233.645 239.800 C 234.278 236.686,234.726 234.392,235.169 232.000 C 235.394 230.790,235.867 228.395,236.221 226.677 L 236.865 223.554 238.132 223.677 C 239.293 223.790,239.427 223.951,239.719 225.600 C 240.917 232.352,241.611 236.000,242.001 237.600 C 242.188 238.370,242.520 239.990,242.738 241.200 C 243.761 246.884,244.549 250.400,244.799 250.400 C 245.132 250.400,245.826 247.250,246.384 243.200 C 246.612 241.550,246.988 239.030,247.220 237.600 C 247.707 234.595,248.297 230.438,248.726 227.000 C 249.111 223.906,249.333 223.600,251.200 223.600 C 253.389 223.600,253.389 224.239,251.203 236.400 C 250.986 237.610,250.634 239.680,250.421 241.000 C 250.209 242.320,249.861 244.480,249.649 245.800 C 249.436 247.120,248.969 249.910,248.611 252.000 C 248.252 254.090,247.804 256.790,247.615 258.000 C 247.091 261.354,246.926 261.600,245.188 261.600 C 243.263 261.600,243.458 262.161,241.037 249.600 C 240.506 246.850,239.852 243.340,239.583 241.800 C 239.314 240.260,238.776 238.100,238.389 237.000 L 237.684 235.000 237.431 237.000 C 237.292 238.100,237.003 239.945,236.789 241.100 C 236.575 242.255,236.231 244.145,236.024 245.300 C 235.244 249.655,234.787 251.940,233.742 256.700 L 232.666 261.600 230.772 261.600 L 228.877 261.600 228.665 259.700 C 228.548 258.655,228.263 256.810,228.031 255.600 C 227.799 254.390,227.435 252.230,227.223 250.800 C 227.010 249.370,226.362 245.590,225.783 242.400 C 225.203 239.210,224.565 235.565,224.364 234.300 C 224.164 233.035,223.820 230.875,223.601 229.500 C 223.381 228.125,223.087 226.235,222.949 225.300 L 222.696 223.600 224.668 223.600 L 226.641 223.600 227.147 226.700 M168.667 227.867 C 168.262 228.271,168.360 256.917,168.768 257.562 C 169.211 258.262,175.105 257.915,176.391 257.114 C 177.844 256.209,178.138 254.222,178.303 244.200 C 178.547 229.317,177.898 227.600,172.024 227.600 C 170.324 227.600,168.813 227.720,168.667 227.867 M175.935 229.196 C 177.503 230.765,177.745 233.277,177.536 245.839 L 177.379 255.287 176.267 256.243 C 175.310 257.067,174.741 257.200,172.178 257.200 L 169.200 257.200 169.200 242.600 L 169.200 228.000 171.969 228.000 C 174.511 228.000,174.837 228.098,175.935 229.196 " stroke="none" fill="#a36846" fill-rule="evenodd"></path><path id="path4" d="M97.467 99.467 C 97.320 99.613,97.200 150.734,97.200 213.067 L 97.200 326.401 210.100 326.301 L 323.000 326.200 323.109 213.600 C 323.169 151.670,323.121 100.595,323.002 100.100 L 322.785 99.200 210.259 99.200 C 148.370 99.200,97.613 99.320,97.467 99.467 M322.400 213.000 L 322.400 326.000 210.000 326.000 L 97.600 326.000 97.600 213.267 C 97.600 151.263,97.720 100.413,97.867 100.267 C 98.013 100.120,148.593 100.000,210.267 100.000 L 322.400 100.000 322.400 213.000 " stroke="none" fill="#e4c4ac" fill-rule="evenodd"></path></g></svg>